<svg width="93" height="48" viewBox="0 0 93 48" fill="none" xmlns="http://www.w3.org/2000/svg">
<path d="M34.7 30.58C34.52 19.18 4.52 21.58 4.52 14.74C4.52 9.46 18.38 4.18 24.14 4.18C25.76 4.18 26.42 6.1 27.74 6.1C28.88 6.1 29.78 5.38 29.78 4.78C29.78 4.6 29.78 4.48 29.66 4.36C28.34 2.5 27.98 0.699997 23.42 0.699997C17.6 0.699997 0.62 6.64 0.62 15.7C0.62 24.7 31.22 21.34 31.22 31.3C31.22 35.5 18.86 42.28 14.18 42.94C13.1 43.12 11.48 43.96 11.48 45.58C11.48 47.2 13.04 47.62 14.3 47.62C15.56 47.62 16.82 47.14 17.06 45.7C17.24 44.68 34.7 39.1 34.7 30.58ZM69.3256 4.24C69.3256 5.44 66.3256 8.62 58.8256 13.6C54.9856 16.12 48.5056 19.42 48.5056 19.42C48.5056 19.42 48.3856 17.62 48.3856 15.4C48.3856 12.88 48.5656 9.76 49.2256 8.74C50.4856 6.82 62.7256 3.52 67.4656 3.52C68.1856 3.52 69.3256 3.52 69.3256 4.24ZM78.5656 27.46C78.5656 19.12 64.3456 18.1 58.4656 18.1C58.0456 18.1 57.8056 18.1 57.8056 18.1C61.2256 15.7 64.1056 14.2 69.8656 8.68C70.9456 7.66 72.8056 5.14 72.8056 3.04C72.8056 0.579999 69.3856 0.579999 67.8256 0.579999C60.6256 0.579999 49.0456 4.3 49.0456 4.3C48.9256 3.82 48.6856 2.98 47.6056 2.98C46.0456 2.98 45.2656 4.48 45.2656 5.68C44.0656 6.58 43.2256 7.18 43.2256 8.74V8.98C43.2856 10.6 45.4456 10.66 45.4456 10.66C45.3856 12.1 45.2656 20.08 45.2656 23.38C45.2656 26.5 45.4456 29.68 45.4456 32.74C45.4456 33.58 45.4456 34.24 45.3856 34.48C45.2656 35.2 45.2656 35.8 45.2656 36.34C45.2656 37.96 45.6256 38.92 45.8056 39.76C45.9256 40.42 47.3656 40.9 48.5056 40.9C49.2256 40.9 49.7656 40.72 49.8856 40.36C50.0656 39.64 50.1856 39.16 50.1856 38.68C50.1856 37.9 49.9456 37.24 49.5256 35.56C49.0456 33.52 48.8056 33.64 48.7456 26.92C48.7456 25 48.7456 23.38 48.7456 23.38C51.2656 22.18 56.4856 21.28 58.8856 21.28C68.9656 21.28 75.1456 24.22 75.1456 27.16C75.1456 33.22 67.0456 39.7 62.7856 41.08C61.9456 41.38 58.5856 41.68 57.8656 41.8C56.8456 41.98 55.4656 43 55.4656 44.32C55.4656 45.64 56.4256 46.48 57.7456 46.48C58.2856 46.48 58.7656 46.36 59.0056 46.18C59.7256 45.7 62.9056 45.04 68.2456 41.74C72.0256 39.46 78.5056 32.74 78.5656 27.46ZM92.1144 41.74C92.1144 40.42 91.3344 39.22 90.0744 39.22H89.8344C89.1744 39.22 87.6144 40.18 87.6144 41.8C87.6144 43.24 88.3944 44.26 89.7744 44.26C91.5144 44.26 92.1144 43.3 92.1144 41.74Z" fill="#29487D"/>
</svg>
